<?xml version="1.0" encoding="utf-8" ?>
<svg xmlns="http://www.w3.org/2000/svg" xmlns:xlink="http://www.w3.org/1999/xlink" width="1000" height="1000">
	<path fill="#885683" d="M704.565 843.423C705.223 843.767 705.912 844.075 706.514 844.511L705.968 844.779C703.113 846.168 699.557 848.258 696.299 847.137L696.358 846.358C698.829 844.61 701.676 844.159 704.565 843.423Z"/>
	<path fill="#885683" d="M921.986 577.397L922.748 579.124C919.572 583.456 921.321 587.127 920.122 591.885C919.155 591.344 918.531 590.803 918.211 589.676C917.126 585.854 920.072 580.637 921.986 577.397Z"/>
	<path fill="#885683" d="M508.515 737.899L511.407 739.774C508.661 742.201 505.951 744.842 502.999 747.006L503.145 745.103L501.466 744.885C503.691 742.462 506.166 740.205 508.515 737.899Z"/>
	<path fill="#885683" d="M893.119 676.628C890.509 674.999 880.653 669.389 879.583 667.147C879.816 665.999 879.726 665.96 880.655 665.273C884.794 667.076 890.592 672.365 894.468 675.214L893.119 676.628Z"/>
	<path fill="#885683" d="M581.754 758.389C584.834 763.712 587.83 769.715 588.005 776.006L587.333 776.619C583.883 771.286 583.099 764.355 579.879 758.693L581.754 758.389Z"/>
	<path fill="#885683" d="M565.723 738.699C571.478 744.888 577.503 751.018 581.754 758.389L579.879 758.693C575.908 751.704 569.914 746.797 564.056 741.446L565.603 740.708L565.723 738.699Z"/>
	<path fill="#885683" d="M502.999 747.006C502.345 748.054 500.93 749.11 500.045 750.046C496.887 753.386 493.658 756.991 491.399 761.018C488.655 765.91 488.483 772.071 485.759 776.618C485.594 776.123 485.526 776 485.483 775.407C484.759 765.312 494.835 751.851 501.466 744.885L503.145 745.103L502.999 747.006Z"/>
	<path fill="#885683" d="M482.483 743.635L484.435 744.527C483.033 756.012 478.5 767.196 473.507 777.559L473.171 777.632C472.941 774.145 476.709 765.835 477.969 762.206C475.186 766.439 472.447 770.718 469.316 774.705C470.884 770.842 473.52 767.231 475.639 763.635C479.281 757.455 481.117 750.623 482.483 743.635Z"/>
	<path fill="#794C77" d="M919.224 261.285C920.232 262.112 920.78 263.022 921.14 264.256C920.957 264.541 899.837 275.832 896.752 277.776C895.761 276.869 894.722 275.548 894.636 274.183C903.325 270.31 911.17 266.423 919.224 261.285Z"/>
	<path fill="#885683" d="M701.941 342.266C714.11 340.007 726.345 337.498 738.12 333.621C742.185 332.282 746.09 330.519 750.116 329.076C751.458 328.596 755.878 327.503 756.543 326.603C756.679 326.79 756.835 326.97 756.922 327.185L756.526 326.395L756.67 327.408C746.406 333.664 716.176 342.44 704.035 344.04C703.257 343.578 702.608 342.877 701.941 342.266Z"/>
	<path fill="#794C77" d="M793.757 118.438C794.98 119.194 796.349 119.819 797.626 120.486C791.221 127.83 785.57 135.478 780.822 144.007C779.642 143.497 778.38 142.305 777.337 141.516C783.38 134.183 788.96 126.654 793.757 118.438Z"/>
	<path fill="#794C77" d="M932.877 533.746C941.838 536.459 951.042 537.85 960.196 539.706C960.76 541.153 960.397 542.177 960.183 543.697C951.336 541.33 941.818 540.479 933.188 537.73C932.359 536.248 932.708 535.407 932.877 533.746Z"/>
	<path fill="#794C77" d="M774.722 775.38C778.778 779.974 787.572 792.8 790.476 798.295C790.067 799.81 789.237 800.268 788.099 801.317C783.073 793.252 777.756 785.627 772.025 778.04C772.466 776.711 773.623 776.206 774.722 775.38Z"/>
	<path fill="#885683" d="M558.329 742.015C558.91 740.474 558.833 740.116 560.304 739.263C561.085 745.924 561.5 752.625 562.328 759.275C563.095 765.429 564.457 771.732 564.638 777.916C563.089 773.59 562.168 769.25 561.411 764.725C559.78 769.288 558.254 773.928 556.374 778.394C556.724 765.875 561.352 754.745 558.329 742.015Z"/>
	<path fill="#885683" d="M631.839 740.065L633.48 737.699L633.813 738.401C636.713 744.596 638 751.996 641.606 757.747C645.371 763.75 652.569 767.921 657.264 773.308C648.803 769.893 646.038 764.8 639.591 758.975L639.772 759.821C640.795 764.49 642.983 768.584 644.321 773.127C636.998 765.955 637.601 749.15 631.839 740.065Z"/>
	<path fill="#794C77" d="M476.321 48.0555L477.24 48.5721C479.904 53.8572 481.396 68.5593 482.124 74.9546C485.38 74.2031 489.137 72.8861 492.475 73.0328L492.888 73.6878L491.884 74.8772L478.775 77.3418C478.524 72.3951 474 51.5692 474.406 49.3623L476.321 48.0555Z"/>
	<path fill="#794C77" d="M694.48 818.273L698.728 816.703C701.384 825.327 704.741 833.664 708.084 842.04C710.462 840.728 714.705 837.837 717.504 838.416C717.187 839.805 715.633 840.818 714.431 841.542C712.113 842.938 709.087 843.67 706.514 844.511C705.912 844.075 705.223 843.767 704.565 843.423C705.157 840.21 696.411 821.768 694.48 818.273Z"/>
	<path fill="#885683" d="M824.71 142.534L828.123 145.496C821.656 151.692 815.778 158.666 809.842 165.364C812.184 167.047 815.121 168.743 817.134 170.76C818.182 171.81 818.141 171.914 818.13 173.329C813.268 171.946 809.182 167.556 805.772 164.011C812.798 158.013 819.63 150.217 824.71 142.534Z"/>
	<path fill="#794C77" d="M810.141 747.426C815.876 755.139 821.954 762.422 828.749 769.221L825.62 772.021C823.448 769.206 821.125 766.503 818.844 763.775C815.299 759.684 811.924 755.455 808.528 751.24C806.144 753.728 803.675 756.821 800.74 758.61L799.957 758.107L800.001 757.092C802.372 753.249 806.68 750.241 810.141 747.426Z"/>
	<path fill="#794C77" d="M921.986 577.397C925.003 574.042 927.885 571.799 932.611 571.531C936.723 571.297 940.925 572.695 943.886 575.6C947.046 578.7 948.305 583.011 948.218 587.356C948.151 590.675 947.11 594.154 944.627 596.47C943.937 597.114 943.368 597.424 942.441 597.653L942.201 597.172C944.96 593.299 947.149 590.186 946.228 585.182C945.669 582.144 943.911 579.607 941.336 577.916C937.755 575.563 933.059 574.968 928.921 575.911C926.577 576.445 924.568 577.58 922.748 579.124L921.986 577.397Z"/>
	<path fill="#794C77" d="M941.287 488.937L943.144 489.605C943.096 492.677 938.855 494.605 939.432 498.225C940.052 499.257 940.945 499.815 942.076 500.193C947.321 501.944 954.109 494.1 958.837 492.099C960.433 491.424 962.334 490.96 963.956 491.857C965.393 492.651 966.304 494.328 966.825 495.82C967.907 498.919 967.198 501.775 965.812 504.629C964.902 504.388 964.244 504.213 963.488 503.638C964.086 501.306 965.669 499.254 966.503 496.948C966.207 495.936 966.23 495.55 965.229 495.035C960.913 492.811 950.89 501.385 946.382 502.892C944.077 503.663 942.204 503.992 939.978 502.907C938.555 501.417 938.307 500.183 938.26 498.198C938.164 494.172 938.546 491.897 941.287 488.937Z"/>
	<path fill="#885683" d="M382.371 450.002C377.943 440.633 367.571 420.658 365.432 411.353C367.79 413.312 379.071 441.117 382.96 447.208C387.518 454.348 393.76 459.944 399.956 465.611L397.737 466.395C390.009 460.047 370.357 440.444 365.852 432.605L366.016 432.332C371.578 438.105 377.057 443.999 382.371 450.002Z"/>
	<path fill="#794C77" d="M620.324 47.3821C623.233 47.1387 625.736 47.3228 628.142 49.0895C628.587 50.1169 628.674 49.8739 628.324 51.0636C625.495 51.0956 623.107 48.1011 620.067 48.5456C619.326 48.654 619.197 49.1693 618.789 49.7269C617.942 56.4301 623.305 61.138 625.683 66.8598C626.486 68.7917 626.921 70.8893 625.85 72.8307C624.62 75.0614 621.789 75.9529 619.51 76.6043C616.841 75.9207 614.011 75.2011 612.023 73.1921C611.648 72.0277 612 71.3836 612.385 70.2772L613 70.1194C614.081 71.2027 615.055 72.3519 616.105 73.458C617.319 74.7367 618.164 74.9647 619.89 74.9965C621.326 74.2801 622.712 73.3128 623.171 71.6632C624.226 67.8706 619.777 62.7176 617.818 59.7133C616.383 57.5114 614.804 55.0316 615.529 52.2835C616.181 49.8115 618.267 48.6004 620.324 47.3821Z"/>
	<path fill="#794C77" d="M574.085 42.0768C575.881 42.032 578.725 41.7558 580.328 42.6391C581.472 43.2694 581.441 43.7468 581.658 44.9125C580.511 45.5018 577.933 44.2531 576.638 43.9063C574.881 43.4356 574.008 43.744 572.538 44.6162C569.488 49.7305 581.336 58.7967 582.161 64.7957C582.345 66.1354 582.08 67.3756 581.168 68.4146C579.363 70.4736 575.788 71.2832 573.192 71.5447C570.666 70.8872 569.168 70.3452 567.45 68.3036C567.334 66.8602 567.443 66.9008 568.324 65.7254C569.53 65.8651 571.256 68.8728 572.395 69.9207C573.422 70.1844 573.667 70.3592 574.741 70.0958C576.562 69.6489 577.861 68.8878 578.821 67.2451C579.744 61.5216 572.273 56.5432 569.899 51.7425C569.084 50.0938 568.569 48.2166 569.249 46.4252C570.099 44.1818 572.042 43.0769 574.085 42.0768Z"/>
	<path fill="#885683" d="M755.114 94.6706C758.148 95.3254 761.508 96.3796 763.219 99.2281C763.772 100.149 763.453 100.333 763.189 101.312C762.335 101.762 762.208 101.82 761.315 101.862C761.27 101.423 761.232 100.983 761.157 100.548C760.906 99.1103 760.173 97.9817 758.849 97.3008C757.72 96.7206 756.341 96.6935 755.163 97.1401C748.042 99.8399 757.583 113.311 754.32 118.874C752.907 121.284 750.38 122.017 747.843 122.679C745.473 121.824 742.244 120.255 740.598 118.319C739.686 117.247 739.762 116.879 739.796 115.562C740.408 114.598 740.365 114.272 741.475 113.864C742.228 114.613 742.126 114.323 742.414 115.167C743.06 117.056 743.493 119.331 745.525 120.24C746.775 120.8 747.634 120.696 748.904 120.339C755.109 115.508 747.458 105.418 749.845 99.14C750.784 96.6709 752.863 95.7361 755.114 94.6706Z"/>
	<path fill="#794C77" d="M744.218 795.443L746.097 795.875C747.06 796.737 747.095 796.961 747.462 798.218C745.176 798.298 742.965 797.726 740.679 798.176C739.142 798.479 738.501 799.084 737.641 800.341C736.615 807.957 752.535 808.312 756.138 814.306C756.768 815.354 757.083 816.357 756.725 817.566C755.927 820.26 753.381 822.613 751.131 824.124C750.288 824.348 749.409 824.477 748.552 824.64C747.488 824.223 747.268 824.353 746.656 823.33C747.865 821.897 751.993 822.15 754.136 819.377C754.348 818.547 754.501 817.946 754.223 817.093C752.688 812.397 742.733 811.798 738.815 809.443C737.156 808.446 735.845 807.076 735.405 805.145C735.001 803.374 735.164 801.09 736.205 799.555C737.943 796.991 741.383 796.094 744.218 795.443Z"/>
	<path fill="#794C77" d="M522.617 42.6648C526.722 42.4733 530.775 42.1719 534.85 42.8786L534.947 43.2335C531.66 43.9668 528.443 44.0917 525.087 44.2184L525.725 55.4143C528.241 55.1245 530.676 54.7463 533.151 55.4357L533.164 56.0168C530.816 57.0227 528.235 56.8741 525.716 56.9494C525.783 59.3377 525.97 61.7044 526.17 64.084C526.281 66.1241 526.619 68.1446 526.907 70.1659C530.162 69.3916 533.076 68.6218 536.433 69.3122C533.48 71.4053 526.928 71.1593 523.317 71.3166C522.582 66.0893 520.994 48.0148 521.568 43.2223L522.617 42.6648Z"/>
	<path fill="#794C77" d="M893.652 219.657C897.181 221.464 901.204 229.635 902.654 233.248C899.003 230.493 897.108 227.31 894.829 223.448L885.856 229.518C887.151 231.441 888.853 233.524 888.936 235.922L888.255 235.958C886.498 234.445 885.555 232.53 884.429 230.542L879.452 233.896L873.804 237.457C875.017 239.129 876.353 240.712 877.557 242.393C878.227 243.327 879.834 245.259 879.666 246.307C875.239 244.471 872.715 239.226 870.469 235.297C878.736 230.783 886.403 225.67 893.652 219.657Z"/>
	<path fill="#885683" d="M583.137 496.649C598.571 477.499 619.17 463.673 636.613 446.491C632.521 454.961 610.496 472.802 603.173 479.694C596.697 485.789 590.511 492.189 584.454 498.698L583.137 496.649Z"/>
	<path fill="#885683" d="M856.47 173.299C857.695 174.227 858.813 175.288 859.955 176.317C855.211 183.706 851.931 191.615 848.505 199.665C852.192 198.725 870.622 192.263 871.694 192.21C873.141 192.138 873.728 192.373 874.702 193.325C874.225 194.438 873.997 194.258 872.935 194.716C863.082 197.889 853.178 201.137 843.091 203.482C847.21 193.269 852.691 183.653 856.47 173.299Z"/>
	<path fill="#885683" d="M894.468 675.214C898.061 677.39 901.629 679.573 905.374 681.482C901.572 682.105 875.991 685.542 874.435 686.958L875.113 687.646C880.443 690.81 887.743 694.286 891.317 699.422L891.271 700.131C886.921 700.268 878.533 692.879 874.897 690.245L866.238 684.241C876.645 683.209 887.147 681.126 897.491 679.495L893.119 676.628L894.468 675.214Z"/>
	<path fill="#794C77" d="M713.214 359.736C715.474 361.356 717.812 363.122 719.736 365.134C725.894 371.572 725.582 378.712 725.27 386.997C722.191 385.405 719.181 383.225 717.032 380.493C712.218 374.37 712.468 367.039 713.214 359.736Z"/>
	<path fill="#885683" d="M614.583 333.093C621.079 323.861 627.275 314.513 630.82 303.685C632.993 297.047 634.321 290.149 636.529 283.513C636.818 282.646 638.639 277.275 639.2 277.161C637.993 282.225 636.283 287.118 634.912 292.132C628.726 314.743 624.685 325.153 608.342 342.721C599.952 351.738 591.443 360.311 584.059 370.219C583.272 370.005 582.495 369.749 581.717 369.506C598.89 345.112 624.673 334.134 618.455 297.84C617.661 293.206 616.345 288.667 615.013 284.165C620.557 291.207 621.076 304.939 620.022 313.407C619.168 320.274 617.132 326.692 614.583 333.093Z"/>
	<path fill="#794C77" d="M906.069 616.55C911.541 618.737 923.889 636.174 928.222 641.609C921.991 641.64 915.771 641.367 909.546 641.126C906.413 641.035 897.179 641.718 895.014 639.61L895.254 638.757C898.466 636.242 902.97 637.616 906.844 637.732L912.71 625.931C909.85 623.015 907.233 620.597 906.069 616.55ZM913.58 627.687C911.966 630.986 910.333 634.278 908.777 637.605C911.88 637.899 914.975 638.191 918.089 638.35L922.431 638.59L922.747 638.131C920.467 634.62 917.028 630.104 913.58 627.687Z"/>
	<path fill="#885683" d="M603.558 433.279C618.262 425.511 627.099 414.824 634.106 399.828C636.463 394.784 638.483 389.251 641.52 384.59C641.629 384.424 641.742 384.261 641.853 384.096C635.75 400.271 629.26 414.664 617.816 427.919C628.787 425.748 641.186 422.387 651.139 417.293C657.916 413.823 664.206 409.588 671.241 406.593C681.061 402.411 691.538 400.009 701.598 396.444C698.121 399.381 690.541 401.091 686.115 402.572C689.628 403.215 696.216 403.732 699.061 405.967L698.393 406.133C698.138 406.052 697.884 405.968 697.628 405.891C675.989 399.357 663.3 415.143 644.95 421.789C636.25 424.939 624.525 426.184 616.691 430.303C615.8 431.659 612.925 432.225 611.323 432.573C608.931 433.094 605.85 434.087 603.558 433.279Z"/>
	<path fill="#794C77" d="M673.482 58.9411L674.385 59.6025C676.184 63.1677 678.829 85.3929 677.984 89.4271C677.734 90.6229 677.997 90.2225 677.086 90.8441C676.965 90.7475 676.833 90.6632 676.724 90.5542C674.037 87.8832 674.012 83.0151 673.79 79.4959C670.548 78.6321 667.373 77.5485 664.187 76.5025C663.879 76.394 663.341 76.1939 663.034 76.138C659.997 75.5853 657.032 82.0244 654.445 83.2207C653.785 83.5258 653.509 83.1998 652.896 82.9417C652.988 81.0225 671.058 61.6416 673.482 58.9411ZM671.439 64.388C668.345 67.5513 665.672 70.9234 662.968 74.4151L666.63 75.773L673.498 77.6544C673.252 74.1432 673.474 67.1065 671.439 64.388Z"/>
	<path fill="#885683" d="M848.76 707.315C851.953 709.381 860.711 732.919 862.76 737.92C856.747 736.42 850.878 734.334 844.996 732.393L831.074 727.886C831.725 726.95 832.308 725.9 833.364 725.384C835.27 724.452 841.344 727.545 843.496 728.289C846.246 724.941 848.865 721.522 852.143 718.662C851.116 716.902 850.031 715.134 849.148 713.296C848.038 710.987 847.879 709.679 848.76 707.315ZM852.36 721.036C849.93 723.552 847.527 726.393 844.802 728.575L852.659 731.27C854.585 731.916 856.548 732.507 858.425 733.282C857.164 729.904 855.346 722.989 852.36 721.036Z"/>
	<path fill="#794C77" d="M925.965 350.638C936.504 352.608 947.681 353.317 957.729 357.203C952.941 362.51 947.17 366.382 941.38 370.5C939.135 372.241 936.792 375.08 934.326 376.326C933.369 376.81 933.07 376.672 932.107 376.402C931.492 375.402 931.575 375.194 931.628 374.002C933.413 371.605 937.345 369.414 939.755 367.515C938.546 363.505 937.804 359.293 936.909 355.2C934.346 354.88 929.913 354.838 927.731 353.467C926.349 352.599 926.387 352.143 925.965 350.638ZM938.48 355.345C939.657 358.928 940.452 362.622 941.31 366.291L946.749 361.93L952.057 357.684C947.54 356.799 943.03 356.034 938.48 355.345Z"/>
	<path fill="#794C77" d="M659.784 829.77L660.595 830.158C661.854 832.847 656.234 858.566 655.304 863.226C650.999 858.031 646.826 852.748 642.683 847.424C640.011 843.644 636.946 840.164 633.953 836.638L638.672 835.637C640.431 838.624 642.326 841.347 644.459 844.079C648.586 843.019 652.709 841.868 656.913 841.156C657.31 837.17 657.234 833.058 659.784 829.77ZM655.521 843.385L645.684 845.461C647.695 848.07 649.693 850.689 651.772 853.245L654.32 856.606C654.9 853.577 657.109 846.023 656.018 843.407L655.521 843.385Z"/>
	<path fill="#794C77" d="M428.951 59.5444C434.308 63.2479 444.76 75.3332 448.912 80.8605C449.627 81.8119 450.337 82.4904 450.169 83.6899C449.28 83.9834 448.571 84.268 447.622 84.2485C445.483 84.2045 441.879 78.8693 440.431 77.1757C436.276 78.2835 432.179 79.6107 428.073 80.8886C427.672 83.6022 428.02 86.7193 427.376 89.3211C427.112 90.3891 426.621 90.8456 425.718 91.3869L425.258 90.986C424.316 82.794 426.636 67.5548 428.951 59.5444ZM429.927 65.1962C429.359 69.7203 428.664 74.2646 428.492 78.8239L435.417 76.7978L437.668 75.8851C437.959 74.4954 437.621 73.525 436.871 72.3167C435.283 69.7559 432.287 67.0913 429.927 65.1962Z"/>
	<path fill="#794C77" d="M940.905 443.625C950.119 443.097 959.566 443.17 968.799 443.232C969.023 444.966 969.271 446.718 969.331 448.467C969.469 452.48 968.563 455.332 965.784 458.225C964.91 458.715 964.086 459.189 963.112 459.452C960.984 460.028 958.772 459.964 956.856 458.788C952.916 456.371 951.8 451.578 950.896 447.398C947.723 446.88 942.73 448.168 940.153 446.488C940.07 445.196 940.341 444.814 940.905 443.625ZM956.654 447.043C955.221 447.203 954.315 447.228 953.222 448.287C952.744 449.451 952.63 449.814 953.021 451.096C953.595 452.975 956.425 454.95 958.179 455.596C960.152 456.322 962.146 455.97 964.162 455.604C966.104 454.408 967.716 453.21 968.324 450.896C968.518 450.16 968.446 449.459 968.372 448.714C967.582 447.521 967.114 446.976 965.604 446.672C962.896 446.127 959.408 446.808 956.654 447.043Z"/>
	<path fill="#794C77" d="M387.366 74.9879C387.491 75.0859 387.628 75.1694 387.739 75.282C390.046 77.6139 390.162 103.424 390.498 108.02C384.484 103.756 379.062 98.8858 373.819 93.7149C374.687 101.003 375.28 108.306 375.895 115.618C368.754 109.53 361.854 103.172 354.924 96.8456C353.782 95.8878 352.672 95.058 351.914 93.7458C352.703 92.5496 353.895 92.3991 355.203 91.8874C360.987 97.8509 367.297 103.318 373.445 108.903C372.224 101.464 371.646 93.9918 371.246 86.47L387.936 101.527C387.581 95.8205 384.413 79.4954 387.366 74.9879Z"/>
	<path fill="#794C77" d="M935.85 296.832C937.345 297.322 938.629 299.489 939.312 300.891C940.742 303.827 941.07 307.356 939.854 310.427C939.027 312.514 937.496 314.073 935.366 314.81C932.11 315.937 929.245 314.469 926.374 313.064C924.004 316.693 921.36 322.695 917.944 325.238L917.238 324.918C917.197 324.695 917.143 324.475 917.114 324.25C916.76 321.538 917.871 320.215 919.352 318.12C920.905 315.886 924.438 311.707 924.199 308.883C924.082 307.494 923.733 307.24 922.798 306.316C919.356 306.724 916.426 309.256 912.979 310.041C912.1 309.823 911.84 309.67 911.166 309.005C910.399 308.248 910.608 308.614 910.614 307.491C912.579 305.679 917.498 304.868 920.136 303.909C925.539 301.944 930.697 299.366 935.85 296.832ZM936.415 300.843C932.738 301.885 927.48 302.862 925.485 306.409C925.414 307.945 925.674 308.917 926.731 310.083C927.287 310.697 927.892 311.229 928.54 311.743C932.279 311.872 934.63 311.324 937.417 308.666C938.349 307.777 939.167 306.615 939.246 305.284C939.34 303.696 937.966 302.007 936.774 301.06C936.665 300.973 936.535 300.915 936.415 300.843Z"/>
	<path fill="#885683" d="M564.068 323.29C579.049 302.66 585.261 281.951 581.225 256.566C580.832 254.093 580.702 249.758 579.539 247.621L579.88 247.225C584.662 264.595 584.144 281.709 579.233 299.041C588.106 284.04 591.312 266.253 600.416 251.316C595.294 266.339 590.58 282.623 583.36 296.761C594.895 283.671 607.568 270.76 621.435 260.119C612.81 271.065 601.605 280.546 592.055 290.737C581.978 301.491 573.515 313.649 565.105 325.711L564.336 325.447L564.675 324.226L564.068 323.29Z"/>
	<path fill="#794C77" d="M697.314 315.646L698.769 315.549L699.314 316.06C698.038 321.592 695.034 327.91 691.149 332.08C683.476 340.316 672.179 340.708 661.718 341.126L660.592 341.114L659.985 340.477C660.28 335.957 665.075 329.083 668.14 325.769C675.713 317.581 686.744 316.125 697.314 315.646Z"/>
	<path fill="#794C77" d="M616.536 197.625C618.365 199.213 618.806 205.155 619.053 207.515C620.243 218.918 620.516 232.627 611.75 241.22C608.176 244.723 603.871 247.763 600.742 251.668C600.631 251.806 600.525 251.947 600.417 252.087L599.985 250.341C596.967 243.754 592.678 239.032 593.281 231.231C594.358 217.299 606.622 206.085 616.536 197.625Z"/>
	<path fill="#794C77" d="M454.669 302.599L455.304 302.956C458.034 312.874 460.106 323.712 457.942 333.95C456.738 339.645 453.879 345.705 448.714 348.796C445.417 350.769 441.491 352.702 437.63 351.77C436.804 351.151 436.024 350.555 435.328 349.787C432.424 346.584 431.205 342.524 431.412 338.246C432.139 323.237 444.471 312.108 454.669 302.599Z"/>
	<path fill="#794C77" d="M719.789 565.023C737.845 562.926 746.877 575.915 760.295 585.02L761.071 585.541C755.954 587.695 750.504 588.875 745.082 589.971C735.922 591.288 724.17 589.865 715.908 585.533C709.364 582.101 705.76 577.237 703.609 570.313C709.132 569.002 714.165 566.215 719.789 565.023Z"/>
	<path fill="#794C77" d="M476.668 341.091C477.87 342.248 478.956 343.401 479.853 344.817C487.306 356.592 488.538 373.975 485.225 387.249C484.267 391.086 482.159 398.9 478.304 400.603C476.977 401.19 476.489 400.817 475.259 400.295C469.298 394.688 464.91 387.711 463.66 379.532C461.466 365.165 468.425 352.261 476.668 341.091Z"/>
	<path fill="#794C77" d="M378.317 274.048L380.011 270.273C387.073 281.94 404.659 292.887 405.8 305.626C406.113 309.122 405.337 312.354 404.515 315.716C403.899 318.232 403.099 320.669 403.047 323.276C396.613 325.328 392.285 325.566 386.008 322.342C380.104 319.308 376.288 313.736 374.421 307.487C371.139 296.504 373.985 284.323 378.317 274.048Z"/>
	<path fill="#794C77" d="M759.88 513.329C770.075 512.569 781.67 519.851 791.072 523.206C795.44 524.765 799.863 525.671 804.404 526.54C797.873 532.734 789.885 537.78 781.596 541.248C774.612 543.412 766.925 543.859 759.816 542.041C749.57 539.419 743.503 532.31 738.335 523.562C745.147 518.143 751.192 514.609 759.88 513.329Z"/>
	<path fill="#794C77" d="M293.839 473.764C303.001 472.987 308.884 474.986 316.903 479.101C314.715 485.157 311.987 491.141 307.773 496.079C299.209 506.115 286.578 506.448 274.44 507.508C267.361 508.274 261.116 510.97 254.28 512.734C255.805 506.709 259.009 500.6 262.487 495.476C269.994 484.417 280.55 476.254 293.839 473.764Z"/>
	<path fill="#794C77" d="M810.354 281.682L811.168 281.928C813.592 285.947 811.985 295.52 810.871 299.917C808.313 310.004 801.797 318.018 792.901 323.297C784.007 328.576 774.584 329.895 764.6 327.302L761.211 325.675C761.18 322.272 761.325 318.777 762.055 315.444C766.799 293.805 794.118 291.939 810.354 281.682Z"/>
	<path fill="#794C77" d="M399.885 188.913C421.916 196.675 441.725 212.582 439.037 238.242C438.266 245.595 433.195 255.278 437.015 262.066C437.456 262.761 437.823 262.973 437.708 263.814C436.054 262.311 434.914 260.609 433.678 258.772C424.517 255.54 415.752 251.244 409.051 244.004C395.894 229.79 399.25 206.715 399.885 188.913Z"/>
	<path fill="#885683" d="M423.397 353.75C420.297 340.086 420.329 327.91 424.838 314.58C425.582 312.38 426.46 309.115 427.73 307.187C428.278 306.354 428.952 307.768 429.079 306.468L428.207 306.222L428.999 305.337L428.73 305.426L429.113 306.295L429.025 305.446C427.27 310.682 424.885 315.569 423.594 320.974C418.781 341.128 427.579 360.573 436.368 378.269C439.887 385.353 443.616 392.379 447.554 399.239L447.391 398.426C444.335 383.627 437.589 370.469 439.549 354.832L439.886 354.513C440.789 358.268 440.529 362.343 441.041 366.19C442.211 374.972 444.433 383.181 447.352 391.512C449.98 378.785 452.952 366.039 454.932 353.194C455.053 352.407 455.283 351.691 455.527 350.936L455.333 351.22L455.666 351.215C456.444 358.17 451.727 374.868 450.365 382.785C449.636 387.026 449.052 391.505 449.402 395.812C450.517 409.558 459.393 427.011 466.363 439.02C468.897 443.386 472.542 448.14 474.46 452.747C477.714 456.992 480.946 461.208 484.782 464.957C487.674 467.783 490.98 470.306 493.756 473.219C486.303 442.597 486.445 411.416 499.268 382.15C497.295 390.124 495.06 398.129 493.656 406.224C490.058 426.964 491.263 449.041 497.293 469.249C505.399 496.393 517.69 505.693 531.309 527.738C533.854 531.857 532.711 535.016 535.916 539.138C539.193 544.306 539.728 552.413 539.514 558.393L539.238 558.465C538.822 552.721 538.558 547.615 535.971 542.324C528.587 527.221 516.055 521.094 501.601 514.288C494.21 510.808 486.609 507.383 478.849 504.822C484.469 508.376 490.758 510.675 496.272 514.399C487.655 513.866 479.113 513.658 470.494 514.35C462.907 514.96 455.386 516.269 447.814 517.034C438.065 518.019 427.626 518.281 418.314 521.539C413.847 523.102 410.242 525.561 406.795 528.763C397.15 537.723 389.017 549.85 377.142 556.104L377.096 555.49C381.471 553.96 404.801 527.678 409.1 523.022C394.434 524.668 376.994 524.029 364.62 514.949C371.992 517.779 379.191 520.166 387.147 520.461C398.78 520.892 409.489 517.439 420.695 514.958C440.317 510.613 461.497 508.064 481.493 510.888C472.881 507.617 464.772 503.248 455.642 501.445C441.692 498.691 426.987 499.733 412.84 499.797C399.727 499.857 385.958 498.588 373.4 494.759C364.318 491.99 356.146 487.905 348.365 482.474C337.515 474.9 327.956 464.389 314.492 461.643C309.936 460.714 305.436 461.155 300.836 461.388C302.842 460.451 306.149 460.303 308.375 460.252C324.602 459.878 335.832 471.243 348.337 479.663C353.402 483.072 358.921 486.014 364.528 488.423C377.166 493.851 390.896 495.353 404.534 495.236C391.131 492.313 377.369 489.837 365.259 483.048C349.895 474.435 338.66 459.853 333.988 442.842C333.383 440.639 330.954 432.737 331.935 431.036C335.361 447.467 341.12 461.581 354.192 472.756C356.239 474.506 359.49 477.43 362.227 477.235C362.863 475.924 363.636 474.787 363.312 473.285C359.249 467.065 353.818 461.47 349.325 455.494C355.772 459.761 360.272 466.452 364.216 472.965C364.349 467.798 363.849 463.152 362.8 458.103C364.811 461.649 366.411 464.754 367.307 468.775C366.304 472.208 365.126 475.228 362.387 477.691C362.534 477.946 362.651 478.221 362.83 478.455C364.114 480.139 368.893 482.032 370.89 482.847C392.398 491.626 414.534 490.962 437.158 492.875C423.025 484.936 410.128 476.882 397.737 466.395L399.956 465.611C412.729 474.853 425.986 485.558 440.741 491.456C448.465 494.543 456.886 494.919 464.933 496.715C482.715 500.684 501.935 508.347 517.584 517.628C513.555 512.493 509.582 507.239 506.264 501.609C502.8 495.729 500.422 488.065 495.49 483.262C480.424 468.592 440.725 480.813 417.095 465.642C429.13 469.146 441.485 470.844 453.968 471.68C464.497 472.386 474.911 472.554 485.292 474.642C477.911 471.362 470.2 468.882 462.174 467.797C458.566 467.309 454.99 467.244 451.391 466.586C451.561 466.492 451.716 466.362 451.901 466.305C457.279 464.663 477.005 468.852 482.342 470.648C473.257 464.304 464.727 456.462 454.443 452.08C435.763 444.121 419.435 456.043 398.326 446.386C413.471 449.463 428.031 448.822 443.242 446.889C429.981 442.764 415.785 440.775 404.085 432.861C414.426 437.054 425.242 439.447 435.875 442.711C452.407 447.785 467.032 455.686 480.816 466.043C477.826 462.127 474.773 457.967 472.352 453.674C467.079 446.633 462.878 438.198 458.904 430.376C451.231 415.271 444.347 399.794 437.12 384.474C433.356 376.496 429.767 368.307 425.282 360.706C417.057 357.457 395.584 352.44 390.465 346.648L390.6 346.165C391.45 346.441 391.107 346.273 391.898 346.769C401.766 352.956 414.013 355.852 425.029 359.469C418.879 346.523 407.446 337.44 403.047 323.276C406.17 327.136 408.252 332.406 410.889 336.663C414.632 342.705 419.091 348.122 423.397 353.75Z"/>
	<path fill="#885683" d="M675.067 220.524C680.441 221.835 685.181 223.807 689.573 227.226C702.763 237.494 706.564 251.677 708.606 267.464C711.293 262.328 713.937 256.141 715.372 250.512C716.179 247.351 716.345 243.43 717.671 240.498C717.58 248.604 715.018 256.407 712.685 264.097C715.228 259.846 718.977 252.156 723.162 249.54C722.777 250.468 722.964 250.206 722.421 250.906C717.758 256.915 714.72 262.604 711.544 269.497C719.506 262.959 727 258.83 737.091 256.517C744.936 254.719 757.877 253.189 764.957 258.023C766.503 259.078 767.584 260.558 767.894 262.426C769.187 270.201 759.807 277.128 755.854 283.051L755.448 283.666C752.181 288.774 749.288 293.546 743.98 296.773C741.241 296.85 738.615 296.752 735.886 296.495C736.593 300.47 737.574 304.638 736.664 308.661C735.721 312.829 732.942 315.893 729.308 318.007C724.149 321.009 717.355 321.785 711.621 320.158C707.454 318.975 704.167 316.29 702.19 312.434C697.503 303.293 701.814 291.806 704.816 282.79C700.747 289.601 695.259 297.063 688.232 301.054C683.743 303.605 678.585 304.331 673.629 302.743C669.114 301.296 665.425 298.034 663.369 293.767C661.551 289.994 661.081 285.586 662.66 281.649C664.86 276.165 669.849 273.341 675.036 271.203C674.128 270.526 673.223 269.846 672.341 269.136C668.669 266.183 667.177 263.679 666.708 258.971C665.713 248.99 668.625 228.375 675.067 220.524ZM676.12 223.131C672.092 230.471 667.486 253.138 669.766 260.931C670.732 264.232 672.99 266.555 676.028 268.072C683.406 271.757 693.849 271.55 701.994 274.357L705.009 275.348C708.178 264.682 706.042 254.162 700.738 244.514C695.108 234.274 687.233 226.882 676.12 223.131ZM748.553 257.539C737.834 258.34 722.001 261.059 714.529 269.601C712.266 272.189 711.405 274.946 710.438 278.156C720.04 283.141 722.658 283.445 731.299 290.928C734.818 293.475 737.5 294.188 741.676 294.925C746.651 291.434 763.883 269.508 765.44 263.652C764.838 261.733 763.95 260.818 762.162 259.906C758.104 257.837 753.031 257.574 748.553 257.539ZM709.363 279.525C709.893 280.738 710.342 281.867 710.681 283.147C712.16 288.726 727.435 310.284 726.271 313.863C720.8 303.713 715.705 291.129 707.785 282.665C705.945 287.396 704.185 292.035 702.918 296.962C702.09 302.56 702.013 308.139 705.669 312.851C708.132 316.026 711.741 317.792 715.693 318.238C720.83 318.818 726.446 317.543 730.447 314.171C732.435 312.495 733.716 310.3 734.966 308.058C734.809 300.471 732.945 295.296 727.37 289.937C722.311 285.074 716.076 281.536 709.363 279.525ZM676.948 272.019C674.395 273.818 671.867 275.681 669.27 277.413C671.285 277.151 673.354 276.719 675.379 277.019C673.221 277.766 671.048 278.132 668.809 278.532C666.449 280.612 663.294 283.605 663.156 286.968C663.121 287.829 663.467 288.081 663.909 288.765C667.809 290.293 688.833 278.891 693.174 281.801L693.427 281.13C694.597 281.04 695.922 280.789 697.072 281.008C693.445 282.787 686.78 283.116 682.557 284.229C676.469 285.833 670.693 288.764 664.592 290.123C668.161 295.756 671.352 299.055 677.794 301.351C680.972 300.638 683.783 299.849 686.755 298.496C693.848 293.983 699.612 287.753 703.132 280.058C696.391 283.238 690.249 287.456 683.476 290.619C688.371 286.207 696.314 281.072 702.688 279.272C696.4 278.21 690.291 277.477 683.915 277.139C689.866 275.313 697.075 278.814 703.086 277.872L702.549 277.242L703.174 277.75C702.975 277.624 702.779 277.494 702.578 277.373C697.933 274.565 682.445 271.128 676.948 272.019Z"/>
	<path fill="#794C77" d="M341.003 110.789L341.388 110.885C342.623 112.096 343.193 114.196 343.834 115.784C334.721 119.953 325.691 124.18 316.854 128.916C223.911 178.726 153.443 261.636 122.846 362.961C92.4877 463.496 103.276 572.723 153.074 665.21C228.644 805.563 380.577 884.229 538.595 869.931C558.752 868.108 579.633 864.278 599.236 859.187C604.181 857.903 615.892 853.001 620.133 854.268C621.194 855.332 621.303 855.512 621.654 856.972C621.232 858.472 621.244 858.409 619.928 859.254C531.107 884.336 448.24 884.068 360.883 852.698C264.152 817.962 182.128 741.534 138.545 648.7C92.6234 550.884 88.4908 440.746 125.016 339.286C151.917 264.561 202.649 198.619 267.485 152.744C290.629 136.368 315.386 122.839 341.003 110.789Z"/>
	<path fill="#885683" d="M309.453 324.968C310.68 313.398 315.217 301.909 324.474 294.435C328.358 291.298 332.551 289.514 337.342 288.202C341.425 289.64 344.257 291.089 346.167 295.259C348.223 299.748 348.472 304.909 350.136 309.539C353.034 317.6 362.003 327.08 358.578 335.953C353.376 349.429 333.037 357.301 322.789 366.622L323.565 366.235C334.992 360.452 348.594 347.171 362.592 351.907C367.565 353.59 371.23 357.565 373.346 362.278C376.44 369.171 376.332 377.7 373.511 384.683C371.601 389.415 368.272 393.72 363.364 395.551C358.277 397.449 352.718 396.157 347.988 393.857C337.478 388.747 330.198 379.236 319.402 374.254C336.398 378.545 347.32 381.016 360.375 393.754C363.678 390.935 366.713 387.966 369.744 384.861C356.566 378.978 344.177 372.911 329.539 371.785C326.841 371.578 323.564 371.219 320.976 372.141C320.055 372.469 319.956 372.692 319.319 373.366C319.479 376.381 337.213 403.484 340.049 408.279C332.306 400.689 324.901 392.606 318.671 383.713C317.553 382.117 316.53 380.142 314.885 379.072L314.284 379.396C313.216 383.117 314.568 387.663 315.404 391.317C314.561 390.908 314.232 389.842 313.92 388.978C312.384 384.709 313.501 379.655 312.152 375.193L311.625 375.152C305.82 382.403 303.029 406.302 304.05 415.554C304.446 419.147 305.424 424.188 308.551 426.444C309.578 427.184 310.672 427.388 311.905 427.189C315.459 426.617 319.337 421.704 320.982 418.796C321.332 418.178 321.666 417.552 321.999 416.924C313.573 409.476 309.599 402.595 308.887 391.138L308.801 389.531C309.824 391.95 310.218 394.728 310.933 397.261C312.996 404.569 316.779 410.41 321.934 415.923C321.923 412.514 321.92 409.136 321.164 405.794C320.194 401.504 316.612 396.67 317.656 392.401C318.502 388.944 314.925 384.193 315.066 380.531L314.966 380.716L315.654 381.367C319.195 392.964 325.473 405.672 323.752 417.981C322.803 421.1 321.772 424.494 319.243 426.725C316.082 429.516 311.834 429.885 307.814 429.483C300.387 428.739 289.689 427.226 284.836 420.885C279.764 414.257 280.888 404.844 281.805 397.118C279.787 398.418 277.774 399.755 275.696 400.955C272.718 402.676 269.354 403.594 265.984 402.559C257.493 399.951 251.333 388.63 244.741 382.903C240.304 379.049 231.462 376.016 229.082 370.69C228.076 368.441 228.477 365.263 229.475 363.08C232.039 357.471 239.442 353.867 245.05 352.012C257.456 347.909 270.342 350.424 281.873 356.123C288.69 358.562 295.222 361.799 301.752 364.913C302.045 365.057 302.399 365.007 302.724 365.032C302.474 364.399 302.49 364.399 302.115 363.686C300.595 360.79 298.473 357.955 296.667 355.216C288.978 343.551 281.689 338.83 268.342 335.07C266.749 335.752 265.415 336.431 263.657 336.386C265.315 335.21 266.761 334.495 268.847 334.542C281.042 334.82 291.697 346.246 299.413 354.344C297.487 346.898 290.519 323.54 292.68 317.13C293.814 321.741 294.029 326.648 294.667 331.348C296.523 345.03 302.434 351.053 310.793 361.339C310.498 358.605 310.161 355.88 310.169 353.125C308.663 344.493 308.289 333.585 309.453 324.968ZM269.605 402.06C273.653 399.316 277.672 396.529 281.457 393.425C283.994 391.345 286.613 388.516 289.421 386.878L289.809 387.04C287.445 389.683 284.927 392.049 282.868 394.954C285.792 393.203 288.497 391.053 291.428 389.369C287.019 393.661 283.111 398.131 282.873 404.644C282.664 410.341 284.948 415.48 287.784 420.254C293.352 423.071 299.223 424.32 305.321 425.462C300.476 409.183 303.931 393.875 308.94 378.091C308.164 378.291 308.013 378.462 307.378 378.911C304.108 381.229 301.176 379.179 296.185 382.455L295.85 382.148L296.319 382.394L296.379 381.836L295.94 382.321L296.994 382.341L296.563 381.295C301.001 378.247 305.497 375.055 310.148 372.341L299.156 366.24C293.549 363.648 287.847 361.235 282.192 358.748C269.024 353.756 255.966 349.249 242.339 355.419C238.689 357.071 232.803 360.837 231.518 364.837C231.103 366.128 231.062 367.314 231.297 368.645C235.397 374.153 241.346 376.885 246.35 381.376C254.145 388.372 259.725 397.581 269.605 402.06ZM311.007 330.744C310.777 337.399 310.72 343.898 311.358 350.542C311.832 357.182 313.476 363.664 315.028 370.115C325.312 362.778 353.904 345.705 356.413 333.942C356.896 331.678 356.526 329.604 355.78 327.442C353.815 321.751 349.524 317.127 347.512 311.459C345.611 306.104 345.814 299.414 342.38 294.709C341.259 293.173 339.551 291.677 337.605 291.409C334.235 290.945 329.764 294.144 327.192 296.11C315.825 304.8 312.862 317.28 311.007 330.744ZM354.245 353.141C342.823 355.137 331.117 363.333 321.821 370.077C330.53 369.728 355.684 362.613 362.494 366.079C352.481 366.238 343.029 366.44 333.338 369.507L331.071 370.002L330.829 370.493C334.971 372.061 339.874 371.832 344.194 373.032C353.311 375.564 361.727 379.997 370.23 384.036C371.857 380.571 373.643 376.525 372.152 372.695C370.936 369.573 368.268 367.983 365.486 366.414L372.27 368.112C370.532 362.789 368.479 357.366 363.166 354.618C360.426 353.201 357.283 352.823 354.245 353.141ZM327.245 377.033C336.221 384.32 346.658 392.441 358.714 393.113C348.762 385.339 339.571 380.048 327.245 377.033Z"/>
	<path fill="#794C77" d="M493.892 211.333C491.129 210.149 488.366 208.964 485.622 207.737C480.182 205.306 474.007 202.012 471.916 196.022C470.998 193.392 470.971 190.56 471.27 187.817C471.861 182.372 474.139 177.212 474.945 171.817C475.788 166.178 474.116 160.33 476.818 154.987C477.987 152.675 479.839 150.971 482.378 150.315C487.218 149.064 492.738 151.242 496.839 153.771C508.026 160.671 517.78 174.21 521.872 186.599C523.181 190.562 523.558 194.687 524.681 198.662C525.005 199.808 525.273 200.773 526.336 201.373C527.888 199.385 527.434 195.391 527.452 192.923L530.764 188.904C526.982 173.243 524.112 171.237 514.56 158.474C525.822 166.152 528.308 175.911 531.594 188.465C534.011 185.509 536.486 181.882 539.374 179.431L539.537 179.648C537.832 181.777 535.835 183.986 534.507 186.365C531.418 191.899 531.593 199.197 528.933 205.174C531.794 201.803 534.591 198.368 537.776 195.292C549.342 184.122 569.836 174.877 586.111 175.394C589.075 175.488 592.211 176.183 594.271 178.478C595.977 180.38 596.671 183.187 596.521 185.696C596.083 193.052 588.994 198.4 585.661 204.557C581.521 212.206 584.472 223.582 577.546 229.692C572.669 233.994 565.169 232.833 559.238 232.327C560.576 233.745 561.856 235.18 563.018 236.747C566.181 241.011 568.094 245.856 567.168 251.223C565.516 260.806 557.181 266.97 549.869 272.316C552.43 284.011 554.349 295.387 555.311 307.328C557.716 294.777 563.478 275.861 569.959 264.958C566.997 275.106 562.54 284.703 559.792 294.947C557.101 304.982 555.625 315.242 553.259 325.344C551.497 332.871 548.9 340.092 546.434 347.405C552.138 339.353 557.686 330.811 564.068 323.29L564.675 324.226L564.336 325.447L565.105 325.711C557.565 339.006 548.137 350.985 539.017 363.206C535.05 368.521 531.445 374.193 527.378 379.405C541.566 399.436 547.928 424.589 548.738 448.936C549.026 457.597 548.332 466.504 549.276 475.105C549.995 470.344 550.516 465.76 550.412 460.94C550.185 450.484 548.168 440.053 550.093 429.639C553.465 411.4 566.167 396.119 570.893 378.086C574.291 365.122 577.291 321.026 581.258 314.499C581.553 320.459 580.285 327.084 579.685 333.053C578.004 349.789 576.795 366.932 572.431 383.25C575.027 378.858 578.034 373.092 581.717 369.506C582.495 369.749 583.272 370.005 584.059 370.219C579.52 376.924 575.288 384.029 571.985 391.43C575.837 386.613 579.751 382.013 584.49 378.026C590.75 372.761 597.911 368.706 604.926 364.556C618.879 356.301 633.844 347.879 645.338 336.35C645.326 332.589 645.781 328.699 646.408 324.996C646.965 321.711 648.98 310.444 651.545 308.637C651.661 309.103 646.877 333.197 646.174 335.329C649.362 332.447 659.181 319.95 661.97 318.997C650.731 335.59 633.481 347.448 617.334 358.758C644.633 348.564 673.157 345.498 701.941 342.266C702.608 342.877 703.257 343.578 704.035 344.04C706.959 345.532 716.58 345.039 720.289 345.177C733.669 345.674 746.81 347.277 760.123 348.285C765.989 343.106 772.04 340.614 779.973 341.104C788.475 341.629 795.712 346.069 801.185 352.411C806.142 358.155 809.465 364.977 812.746 371.755C792.398 369.05 774.088 365.296 760.062 349.113C742.336 348.744 724.609 348.345 706.895 347.599C726.508 352.421 744.191 361.98 759.003 375.717C760.534 373.431 762.028 371.306 764.892 370.725C767.55 370.187 770.031 371.279 772.128 372.844C780.531 379.113 787.086 392.614 788.387 402.837C789.001 407.661 788.501 412.832 788.258 417.683C790.797 411.956 795.13 403.43 800.904 400.36L800.393 400.905L800.373 401.1C794.95 407.979 790.776 414.889 786.945 422.782C798.052 414.189 809.738 406.577 824.45 408.479C829.918 409.186 837.733 412.143 841.068 416.689C842.225 418.265 842.63 420.097 842.215 422.015C841.647 424.647 840.23 426.384 837.931 427.745C835.235 429.34 831.946 430.677 829.711 432.896C824.11 438.456 822.332 444.835 814.489 448.284C810.88 447.513 807.436 446.519 803.932 445.364C805.651 451.568 807.432 457.825 804.17 463.904C801.681 468.543 796.92 471.74 791.899 473.059C787.419 474.236 782.304 473.985 778.24 471.613C774.821 469.618 772.563 466.309 771.595 462.503C768.858 451.748 776.03 439.837 781.245 430.9C773.542 438.658 762.684 449.747 750.846 449.653C747.026 449.623 743.388 448.172 740.745 445.385C737.041 441.479 735.825 435.918 736.036 430.674C736.237 425.665 737.799 420.147 741.587 416.646C744.499 413.957 748.293 413.125 752.163 413.403C754.265 413.554 756.409 414.057 758.477 414.462C753.84 409.231 749.892 404.019 750.384 396.603C750.794 390.425 754.196 384.071 757.753 379.111C736.652 359.091 711.666 349.314 682.626 350.049C647.178 350.947 606.347 362.06 581.459 388.427C559.306 411.896 553.612 446.735 554.639 477.902C554.701 479.758 554.793 481.613 554.902 483.468C558.558 474.107 562.922 465.326 568.115 456.723C582.361 433.12 599.193 412.427 599.214 383.255L599.599 382.749C600.416 383.463 600.299 383.954 600.372 385.028C601.054 394.992 598.218 406.851 595.135 416.252C601.167 407.233 617.5 383.74 626.21 378.873C626.196 379.914 615.588 390.249 614.178 391.932C601.522 407.035 588.628 428.773 579.757 446.401C587.275 441.388 595.053 436.461 603.558 433.279C605.85 434.087 608.931 433.094 611.323 432.573C612.925 432.225 615.8 431.659 616.691 430.303C616.827 430.286 616.964 430.271 617.1 430.253C623.957 429.323 630.241 426.8 637.262 426.203C646.517 425.417 655.837 425.782 665.065 424.979C683.144 423.406 697.479 413.935 708.238 399.666C709.379 398.154 712.466 392.612 713.797 392.133C713.389 397.321 701.38 409.26 697.181 412.83C675.14 431.564 662.426 426.782 637.028 430.361C602.459 435.232 572.267 460.592 560.945 493.443C557.049 504.748 556.101 516.427 554.039 528.113C558.378 522.011 564.522 516.783 569.664 511.321C574.202 506.5 578.304 501.172 583.137 496.649L584.454 498.698L578.426 505.656C586.526 499.56 594.761 494.133 604.286 490.476C636.602 478.073 670.52 490.896 701.862 472.859C711.85 467.111 718.305 457.823 727.108 450.763C715.5 467.292 701.712 481.647 680.919 485.336C674.726 486.435 668.492 486.352 662.23 486.277C646.923 486.094 633.035 485.965 618.528 491.667C615.836 492.725 612.018 493.919 609.969 496.017L610.265 496.356C624.355 491.032 639.075 486.494 654.344 487.251C662.064 487.633 669.537 489.869 677.084 491.38C695.447 495.056 711.605 487.149 726.968 477.954C716.189 488.692 701.714 496.354 686.264 496.258C682.639 496.236 678.942 495.956 675.358 495.407C677.471 498.628 679.821 501.845 681.689 505.213C683.26 508.046 684.341 511.342 686.192 513.988C687.068 515.24 687.962 516.042 689.238 516.861C690.501 516.976 690.841 516.983 691.912 516.132C693.181 515.123 694.101 512.916 694.806 511.493C694.472 513.571 694.356 516.097 692.405 517.343C691.423 517.971 690.06 517.775 689.018 517.407C686.805 516.626 685.024 515.061 683.351 513.47C683.173 511.298 683.222 509.045 682.017 507.164C681.16 505.827 680.339 503.85 678.933 503.143C678.383 504.348 678.327 505.264 678.236 506.564L677.956 506.688C676.991 502.804 676.174 498.817 674.457 495.183C659.848 487.694 642.237 490.029 627.161 494.89C615.435 498.672 603.378 504.044 592.452 509.721C620.452 503.972 628.062 514.773 652.646 522.216C663.518 525.507 674.772 526.463 686.082 525.493C712.219 523.251 745.432 509.861 766.059 493.778C772.994 488.371 777.619 481.272 783.831 475.263C777.591 487.614 766.051 496.919 754.384 503.982C750.173 506.531 745.675 508.663 741.565 511.366C748.778 508.991 756.03 506.039 763.357 504.108C770.032 502.348 777.273 502.178 783.636 499.363C790.631 496.268 795.646 488.135 803.228 486.875C809.139 485.893 816.006 488.674 821.201 491.284C823.198 492.288 825.139 493.401 827.078 494.511C819.623 500.905 810.836 507.605 800.448 506.989C794.388 506.63 788.896 503.898 783.893 500.641C767.592 504.909 751.61 509.563 735.743 515.269C706.549 525.768 689.159 536.178 656.423 528.989C646.692 526.852 636.787 523.584 628.019 518.811C652.474 537.682 676.008 551.21 708.314 547.04C716.269 546.013 724.019 543.72 731.716 541.525C714.756 551.011 690.743 554.129 671.959 548.894C669.254 548.141 666.701 547.202 664.14 546.057C673.835 554.256 683.17 561.761 694.243 568.114C687.487 565.768 681.07 563.001 675.243 558.795C666.696 552.627 659.941 545.261 650.296 540.564C656.077 548.808 660.739 559.698 665.086 568.8C675.667 569.124 684.667 571.457 692.078 579.409C696.042 583.662 698.441 588.505 700.83 593.75C724.95 597.005 747.905 601.02 770.816 609.4C744.812 644.655 719.323 671.711 679.913 691.884C671.403 696.24 662.56 699.784 653.838 703.671C680.708 717.789 696.26 730.71 708.598 759.163C703.549 752.189 699.592 744.262 694.213 737.57C677.675 716.999 651.417 705.62 625.854 701.563C616.826 700.13 607.666 699.396 598.575 698.467C605.295 702.991 612.239 706.79 619.812 709.695C630.856 713.931 642.547 716.619 652.296 723.639C657.227 727.19 661.123 731.56 665.081 736.117C664.917 736.023 664.751 735.931 664.589 735.834C659.905 733.039 656.65 728.442 652.105 725.424C640.817 717.93 626.19 714.16 613.285 710.321C616.079 714.126 617.574 718.39 619.108 722.814C615.896 718.607 613.428 713.659 609.593 709.993C600.493 701.295 587.071 699.101 576.052 693.827C570.344 691.095 565.607 687.45 560.792 683.391C562.533 687.155 564.651 690.412 566.65 694.004C568.359 697.074 569.864 700.403 571.865 703.289C577.701 711.706 588.272 716.56 597.577 719.998C624.217 729.842 655.053 734.033 670.094 761.098L670.113 761.67C660.687 751.71 653.785 744.607 640.922 739.04C638.916 738.172 635.847 736.643 633.66 736.599C633.491 736.596 633.323 736.627 633.154 736.642L633.48 737.699L631.839 740.065C623.532 730.392 612.513 728.401 600.707 725.322C608.082 734.064 612.741 743.81 617.372 754.147C618.414 756.471 619.952 758.673 620.548 761.156L620.378 761.265C608.476 744.266 609.329 733.231 589.728 720.978C592.256 734.629 588.878 745.676 598.68 757.379C601.939 761.27 606.973 764.513 609.746 768.563L609.388 768.691C602.649 764.355 596.473 757.531 591.287 751.526C594.941 760.146 599.273 768.511 603.395 776.916C596.101 768.968 590.837 757.468 589.16 746.837C588.437 742.254 588.357 737.568 587.904 732.953C586.566 719.301 580.134 714.164 570.212 706.056C572.51 715.422 573.694 724.27 573.947 733.884C569.624 713.933 567.457 703.872 554.379 687.705C554.201 698.955 553.363 709.883 552.049 721.058C555.982 727.405 561.012 732.934 565.723 738.699L565.603 740.708L564.056 741.446C562.833 740.494 561.847 739.642 560.304 739.263C558.833 740.116 558.91 740.474 558.329 742.015C556.276 736.324 553.631 730.966 550.808 725.627C546.925 739.471 540.116 751.961 537.127 766.153C537.079 763.499 537.63 759.247 536.426 756.983L535.966 757.28L535.397 761.192C534.046 758.489 534.21 755.133 533.015 752.305C529.041 742.902 525.043 736.776 522.285 726.428C516.185 736.92 511.862 748.279 513.974 760.584C514.544 763.905 515.675 767.161 516.504 770.427C516.94 772.143 517.793 774.959 516.856 776.539C514.542 773.669 513.592 767.578 512.58 763.944C511.732 767.965 510.997 772.247 509.495 776.079C508.543 771.714 510.197 766.308 510.775 761.92C511.358 757.492 512.617 743.476 511.407 739.774L508.515 737.899C513.517 732.576 517.596 726.89 521.646 720.845C519.372 710.442 519.653 699.29 519.8 688.692C510.237 697.546 506.264 707.408 502.981 719.676C502.099 722.972 501.449 726.694 499.98 729.755C499.78 723.43 502.376 714.101 503.291 707.348C496.013 712.722 491.6 716.982 487.528 725.199C485.782 731.534 485.206 738.021 484.435 744.527L482.483 743.635C480.807 745.687 479.423 748.195 477.765 750.327C475.109 753.744 463.753 766.862 459.946 768.077C460.952 765.628 464.877 762.535 466.843 760.499C478.06 748.882 481.28 740.579 485.199 725.179C485.502 723.661 485.975 722.153 486.382 720.658C481.589 722.368 475.918 723.695 471.701 726.561C465.569 730.729 461.813 741.997 458.351 748.425C456.355 752.131 454.161 755.661 451.844 759.172C454.803 749.908 463.068 737.022 467.457 727.55C464.745 727.982 462.034 728.437 459.342 728.984C454.21 730.029 448.882 731.709 445.066 735.479C438.083 742.377 436.516 763.736 429.125 774.863L428.752 774.695C431.285 767.359 433.868 763.066 435.98 754.817C430.124 762.016 424.193 768.715 417.258 774.907C419.798 770.042 424.863 766.133 428.307 761.852C433.928 754.866 436.712 745.983 440.023 737.781C432.184 740.321 423.861 743.086 417.238 748.119C415.065 749.77 412.958 751.632 411.124 753.656C409.42 755.535 406.187 761.039 404.181 761.823C404.247 761.672 404.311 761.519 404.38 761.369C409.208 750.715 416.845 744.495 427.402 740.07C431.139 738.503 435.104 737.255 438.707 735.401C443.977 732.691 448.417 728.777 454.11 726.86C461.543 724.357 469.354 723.759 476.819 720.913C495.749 713.696 503.451 702.23 511.432 684.474C496.553 695.951 482.382 697.966 467.832 706.974C462.268 710.418 457.547 715.404 452.807 719.87L452.068 719.722L452.321 719.402L452.129 720.468L451.717 720.235C454.865 715.578 459.6 711.332 463.957 707.819C436.836 714.553 424.738 720.098 405.908 741.083C406.801 738.599 409.32 735.883 410.984 733.758C424.263 716.803 441.531 714.607 460.019 706.962C466.928 704.106 473.442 700.375 479.959 696.738C460.016 701.845 439.176 699.139 419.7 706.564C406.184 711.717 393.758 719.735 384.26 730.722C379.376 736.372 375.858 742.69 372.488 749.317C371.579 751.104 369.005 757.44 367.64 758.065C368.09 756.436 368.6 754.842 369.199 753.262C380.679 722.991 400.964 712.178 428.961 699.526C428.225 699.446 427.492 699.354 426.758 699.248C389.604 693.869 354.095 671.092 328.727 644.083C318.851 633.568 310.292 621.927 301.733 610.343C301.884 610.268 302.035 610.191 302.188 610.118C305.639 608.46 330.517 597.322 332.346 597.957C332.142 599.616 331.816 601.341 333.085 602.695C339.641 609.697 363.285 595.727 369.946 593.387C371.887 592.705 373.966 592.762 375.997 592.767C382.785 584.574 388.25 579.771 398.399 576.282C401.527 569.545 404.532 562.826 408.077 556.291C402.496 559.719 397.236 563.66 391.591 567.002C388.602 568.771 384.105 570.189 381.534 572.241C381.348 572.39 381.208 572.588 381.045 572.761L380.295 572.492C387.848 567.169 395.829 561.981 403.002 556.169C422.504 540.368 440.806 521.092 466.602 516.234C483.212 513.106 505.832 515.193 520.007 525.164C525.341 528.916 528.353 533.891 531.031 539.683C532.897 543.72 534.93 547.909 536.059 552.219C539.062 563.684 536.981 579.562 536.465 591.529C536.306 595.223 535.152 599.397 535.792 603.017C536.19 602.023 536.129 602.362 536.26 601.426C537.016 596.003 538.354 591.628 540.077 586.474L540.448 586.776C540.522 594.492 538.113 602.507 537.071 610.169C543.571 593.837 545.098 578.224 544.398 560.816C544.013 551.251 543.479 540.412 545.585 531.025C546.375 533.017 545.219 543.59 545.147 546.821C544.944 555.872 545.296 565.126 546.419 574.11C547.401 565.517 549.364 557.544 548.45 548.851C548.211 551.646 548.062 554.416 546.834 556.981L546.551 556.933C549.192 535.347 551.97 511.897 549.741 490.188C547.693 496.753 548.563 503.322 548.411 510.108C548.273 516.246 547.506 522.313 546.09 528.286C545.918 524.641 546.672 520.805 547.003 517.16C547.381 513.001 547.449 508.894 547.398 504.72C544.561 518.616 543.471 533.543 543.053 547.696C542.822 555.523 543.21 563.645 542.214 571.403C541.72 563.623 541.763 550.744 539.885 543.685C539.285 541.432 537.303 538.343 535.706 536.672L535.332 537.109L535.916 539.138C532.711 535.016 533.854 531.857 531.309 527.738C517.69 505.693 505.399 496.393 497.293 469.249C497.525 461.927 495.308 454.305 495.345 446.82C495.427 430.037 503.617 413.856 515.365 402.126L515.749 402.332C506.942 414.775 499.26 428.165 498.424 443.74C496.958 471.056 511.794 495.911 529.49 515.539C529.547 497.813 533.535 480.052 534.529 462.294C535.919 437.458 534.767 412.464 522.289 390.238C517.176 381.131 510.796 372.782 505.837 363.573C498.954 350.789 494.004 337.046 487.062 324.318C467.226 287.953 428.592 266.256 389.96 254.761C381.08 257.291 372.505 257.836 363.539 255.236C350.326 251.406 340.635 241.193 334.121 229.446C344.208 225.964 356.569 223.539 367.198 225.633C374.898 227.15 383.935 231.126 388.332 237.923C391.523 242.858 391.547 248.232 390.457 253.801C408.681 259.274 431.034 268.735 447.403 278.206C445.359 275.55 443.599 272.931 441.968 270.002C448.353 276.912 454.733 283.087 462.59 288.348C459.797 283.569 457.017 278.726 454.679 273.704C450.518 264.771 447.55 252.857 451.042 243.21C451.921 244.728 450.826 250.662 450.846 252.89C450.904 259.212 452.619 265.549 455.038 271.353C461.281 286.325 473.413 297.696 482.909 310.574C487.144 316.318 490.356 322.797 494.353 328.716C488.016 308.77 467.588 282.181 468.493 261.855C469.297 262.627 473.389 278.489 474.49 281.176C479.441 293.264 486.489 304.42 493.08 315.653C492.054 304.776 493.682 279.141 499.201 269.627C499.311 274.059 495.94 284.292 495.251 289.633C494.261 297.309 494.592 305.349 495.371 313.027C498.044 339.39 507.983 354.685 523.912 374.865C528.853 365.652 535.341 357.403 540.685 348.442C555.232 324.055 553.742 300.049 548.454 273.304C544.883 274.682 541.206 275.886 537.318 275.461C533.558 275.049 530.352 272.941 528.099 269.956C521.642 261.401 521.901 247.096 523.136 237.011C522.397 238.561 521.677 240.189 520.785 241.655C519.938 243.048 519.019 243.724 517.466 244.123L516.628 243.494C515.339 239.942 516.432 237.026 517.319 233.502C515.446 237.424 513.3 241.077 510.78 244.623C506.657 250.424 500.65 257.698 493.182 258.785C488.384 259.483 483.858 257.428 480.177 254.487C474.124 249.65 469.943 242.052 469.152 234.341C468.591 228.873 469.844 223.22 473.481 218.986C478.746 212.858 486.346 211.825 493.892 211.333ZM483.462 521.674C476.158 522.311 469.295 523.105 462.184 525.022C455.79 532.722 449.082 540.664 445.69 550.219C444.858 552.564 444.32 554.831 444.167 557.321C444.085 558.661 444.653 563.024 444.032 563.816C443.06 559.399 443.418 555.389 443.813 550.936C441.831 553.222 426.111 568.671 424.431 569.511C429.475 562.117 435.823 555.61 441.01 548.292C446.293 540.839 450.403 532.641 455.606 525.191C450.329 527.989 444.816 530.275 439.665 533.315C422.266 543.583 408.632 558.744 399.417 576.626C401.746 581.37 402.292 586.287 402.314 591.506C406.224 590.812 410.177 590.213 414.065 589.414C412.335 601.708 412.73 612.323 417.977 623.735L419.33 626.536C425.186 616.727 431.077 608.5 433.493 597.071C434.052 594.429 434.738 588.975 437.405 587.691C438.643 588.182 439.241 588.502 439.861 589.726C441.417 592.798 441.567 597.587 442.46 600.988C446.272 615.513 453.312 625.74 464.613 635.461C467.752 620.508 467.546 606.27 464.015 591.428C477.47 594.503 490.888 596.759 504.645 597.963C512.31 598.634 520.135 598.599 527.755 599.568C530.295 580.543 536.232 551.579 524.013 535.09C517.54 526.354 507.437 523.351 497.098 521.981C492.699 521.398 487.871 520.986 483.462 521.674ZM602.222 514.827C588.631 516.418 574.547 522.034 565.875 533.025C551.964 550.656 549.272 577.92 551.877 599.439C565.01 598.234 578.313 596.396 591.449 595.602C583.257 611.32 579.946 621.102 584.31 638.739C598.092 631.019 614.465 623.163 619.049 606.629C620.374 601.851 620.654 596.811 620.513 591.874C625.042 591.632 629.56 591.368 634.08 590.994C631.899 578.079 630.727 564.643 627.067 552.059C625.749 556.91 624.042 561.581 622.29 566.287C621.359 568.861 620.599 571.925 619.037 574.179C617.227 574.096 617.17 574.291 615.854 575.505C610.292 580.633 606.89 584.389 600.3 588.564C611.129 576.912 624.075 562.548 623.416 545.522C623.161 538.925 620.906 532.231 618.16 526.285C613.392 532.57 608.692 538.901 603.185 544.571C606.37 548.989 608.272 554.359 607.34 559.842C606.121 567.013 600.509 572.387 594.756 576.312C586.316 582.07 576.219 586.094 566.771 589.958C567.996 575.476 569.633 559.793 581.42 549.691C586.579 545.27 592.632 543.399 599.364 543.906C600.332 543.978 601.295 544.09 602.257 544.216C606.271 535.484 612.227 527.529 616.572 518.878C611.683 516.099 608.03 514.359 602.222 514.827ZM621.8 520.801C627.739 533.82 630.491 548.55 638.895 560.321C641.542 564.029 644.595 567.437 647.84 570.628C650.004 572.755 659.381 579.717 659.914 581.848L660.5 581.998C659.996 582.077 658.259 580.838 657.81 580.514C648.902 574.08 641.564 567.437 633.883 559.594C634.759 566.649 635.583 573.677 637.039 580.642C638.337 585.148 639.594 589.744 642.009 593.805C652.074 591.851 661.992 591.828 672.186 592.07C666.08 585.244 666.357 578.108 664.181 569.766C663.221 566.087 660.001 562.669 658.241 559.293C655.761 554.534 653.651 549.312 650.687 544.842C643.78 534.426 631.53 528.254 621.8 520.801ZM645.885 598.969C643.686 601.584 641.48 604.178 639.464 606.94C639.526 607.121 639.591 607.301 639.651 607.483C641.205 612.159 639.959 616.969 641.366 621.59C645.567 635.388 660.437 644.494 670.461 653.945L671.56 654.405C674.536 651.277 674.53 636.827 674.424 632.518C674.206 623.702 671.288 614.306 664.692 608.153C659.492 603.302 652.733 600.566 645.885 598.969ZM530.81 708.3C528.845 713.048 526.967 717.857 524.851 722.54C527.76 732.871 531.451 741.603 536.567 751.029C539.674 745.157 542.904 739.294 545.171 733.032C546.395 729.109 547.481 725.074 548.872 721.212C546.045 717.25 543.511 713.231 541.604 708.739C539.213 715.518 537.232 722.438 535.274 729.352C534.763 721.902 533.319 715.323 530.81 708.3ZM547.368 610.794C547.365 614.642 549.067 624.524 547.899 627.457C547.622 628.151 546.608 629.154 546.127 629.785C544.889 627.518 545.592 622.903 545.925 620.346L544.927 622.663C542.555 628.175 544.644 635.124 543.035 638.664L541.584 636.2L541.048 636.233C540.922 636.721 540.789 637.207 540.695 637.701C539.921 641.76 540.657 643.564 542.853 646.865C545.472 641.527 545.577 636.899 545.664 631.072C546.611 635.723 547.641 640.512 550.561 644.369L551.363 641.396C555.432 649.313 558.542 657.255 563.247 664.944C562.477 664.576 561.836 664.338 560.997 664.177C560.907 665.365 561.317 665.988 561.797 667.041L560.904 668.963C564.419 674.774 572.015 686.208 578.722 688.72L579.667 688.472L578.415 687.367L580.606 687.286C582.697 687.962 584.733 689.35 586.655 690.422C584.821 688.563 583.184 686.503 581.501 684.508L589.851 689.74C586.351 685.578 581.276 682.102 577.345 678.219C564.371 665.402 555.672 650.46 550.871 632.857C548.945 625.795 549.744 618.296 547.541 611.32C547.485 611.144 547.426 610.97 547.368 610.794ZM534.759 630.719C532.415 634.403 527.321 641.041 528.343 645.551C528.544 646.438 528.505 646.226 528.978 647.032C531.857 645.839 533.221 643.77 535.249 641.505C540 660.951 548.289 678.806 562.472 693.27L562.087 692.523C559.095 686.779 554.738 681.822 551.873 676.048L552.369 675.918L553.213 676.576C553.062 672.228 547.74 666.496 545.906 662.347C543.55 657.014 542.958 651.117 540.83 645.732C539.5 642.363 536.817 639.392 535.683 636.053C535.113 634.374 534.966 632.471 534.759 630.719ZM531.388 609.733L531.139 610.547C529.223 616.927 528.484 623.559 526.876 630.008C523.357 644.127 514.634 658.506 505.194 669.443C502.721 672.309 492.212 681.543 491.297 683.581C494.342 682.858 505.453 671.421 509.37 668.702C507.121 671.247 504.837 673.714 502.433 676.113C498.494 679.816 494.035 683.205 490.416 687.198C501.374 681.349 513.377 670.981 517.141 658.744C515.633 660.6 514.172 662.565 512.491 664.235C512.407 664.319 512.367 664.437 512.304 664.539C513.52 661.255 516.349 658.189 518.063 655.046C524.395 643.438 533.757 623.832 531.87 610.289L531.388 609.733ZM543.599 478.325C542.689 484.152 542.234 490.03 541.277 495.854C539.635 505.845 534.62 520.44 536.713 530.296C537.11 532.165 538.907 534.116 539.952 535.714C541.633 530.253 541.427 524.292 542.328 518.669C543.71 507.455 546.087 496.298 545.886 484.951C543.858 491.524 543.598 498.609 541.42 505.014C542.008 499.199 545.256 482.948 543.599 478.325ZM543.179 673.086C541.216 685.281 540.439 703.566 548.364 714.086C548.762 714.614 548.812 714.633 549.23 715.015C549.498 710.035 551.365 690.765 548.253 686.882C548.172 686.78 548.063 686.703 547.968 686.614L546.829 687.682C544.773 683.265 547.402 676.815 543.179 673.086ZM536.303 686.337C533.126 696.288 532.148 702.524 533.864 712.803C534.204 714.841 534.405 717.689 535.184 719.581C535.391 720.084 535.484 720.153 535.785 720.52L536.18 720.229C539.92 710.506 541.104 702.556 538.524 692.359C538.135 690.82 537.656 688.145 536.816 686.827C536.689 686.628 536.474 686.5 536.303 686.337ZM601.573 497.622C593.058 502.614 585.672 508.738 577.559 514.261L577.93 513.861L576.841 514.717C578.518 512.175 590.236 504.259 590.368 503.87C590.45 503.628 590.377 503.359 590.381 503.103C577.739 509.361 570.251 517.597 561.95 528.713C557.547 535.021 553.945 540.039 553.254 548.026C561.307 526.074 573.735 519.161 591.57 506C595.02 503.454 598.714 501.026 601.843 498.102L601.573 497.622ZM550.884 653.451C555.015 668.904 563.176 681.712 577.195 689.934C580.606 691.934 584.237 693.488 587.926 694.888C585.028 692.795 581.315 691.061 578.722 688.72C572.015 686.208 564.419 674.774 560.904 668.963C557.815 663.577 554.469 658.521 550.884 653.451ZM531.34 680.013C531.295 680.177 531.247 680.34 531.204 680.504C529.983 685.269 531.141 691.148 529.312 695.61L529.149 695.223L528.992 695.82C528.615 694.461 529.437 685.073 529.39 682.671C525.66 689.148 524.77 695.109 524.493 702.515L524.332 716.351C527.239 707.773 534.26 689.051 531.916 680.581L531.34 680.013ZM544.607 604.824C542.875 609.916 535.774 622.411 536.381 627.016C541.141 622.469 544.518 613.062 544.759 606.435C544.798 605.352 544.83 605.71 544.607 604.824ZM536.032 570.644C534.539 575.919 532.051 584.202 534.831 589.3C536.494 584.005 537.444 577.068 536.693 571.53L536.032 570.644ZM546.87 647.296C546.7 651.883 547.139 656.961 550.364 660.564C550.708 660.948 550.802 660.988 551.172 661.244C550.601 656.368 550.329 651.126 546.87 647.296ZM535.853 652.182C534.094 655.785 532.677 660.167 533.937 664.171C534.151 664.853 534.503 665.472 534.84 666.098C535.852 661.526 537.346 656.81 535.853 652.182ZM528.345 659.595C527.875 664.423 529.119 668.924 531.709 673.012C531.474 668.924 531.659 663.974 529.601 660.343L528.345 659.595Z"/>
	<path fill="#885683" d="M528.978 647.032C529.516 643.247 531.677 638.284 534.237 635.491L534.966 636.701C534.76 638.297 534.813 639.43 535.141 641.009L535.249 641.505C533.221 643.77 531.857 645.839 528.978 647.032Z"/>
	<path fill="#885683" d="M561.797 667.041C567.167 674.709 572.982 681.728 580.606 687.286L578.415 687.367L579.667 688.472L578.722 688.72C572.015 686.208 564.419 674.774 560.904 668.963L561.797 667.041Z"/>
</svg>
